<?xml version="1.0" encoding="UTF-8" standalone="no"?>
<!-- Created with Inkscape (http://www.inkscape.org/) -->

<svg
   width="1024"
   height="1024"
   viewBox="0 0 270.93333 270.93333"
   version="1.1"
   id="svg1"
   xml:space="preserve"
   inkscape:version="1.4.2 (ebf0e940, 2025-05-08)"
   sodipodi:docname="icon.svg"
   inkscape:export-filename="../../../../Icons/v2/resources/icon-48.png"
   inkscape:export-xdpi="9"
   inkscape:export-ydpi="9"
   xmlns:inkscape="http://www.inkscape.org/namespaces/inkscape"
   xmlns:sodipodi="http://sodipodi.sourceforge.net/DTD/sodipodi-0.dtd"
   xmlns:xlink="http://www.w3.org/1999/xlink"
   xmlns="http://www.w3.org/2000/svg"
   xmlns:svg="http://www.w3.org/2000/svg"><sodipodi:namedview
     id="namedview1"
     pagecolor="#ffffff"
     bordercolor="#000000"
     borderopacity="0.25"
     inkscape:showpageshadow="false"
     inkscape:pageopacity="0.0"
     inkscape:pagecheckerboard="0"
     inkscape:deskcolor="#d1d1d1"
     inkscape:document-units="px"
     showborder="true"
     borderlayer="false"
     inkscape:zoom="1.0530408"
     inkscape:cx="84.517142"
     inkscape:cy="501.87988"
     inkscape:window-width="3440"
     inkscape:window-height="1384"
     inkscape:window-x="0"
     inkscape:window-y="0"
     inkscape:window-maximized="0"
     inkscape:current-layer="svg1"
     showguides="true" /><defs
     id="defs1"><linearGradient
       id="linearGradient1"
       inkscape:collect="always"><stop
         style="stop-color:#057aff;stop-opacity:1;"
         offset="0"
         id="stop1" /><stop
         style="stop-color:#057aff;stop-opacity:0;"
         offset="1"
         id="stop2" /></linearGradient><linearGradient
       id="swatch162"
       inkscape:swatch="solid"><stop
         style="stop-color:#000000;stop-opacity:1;"
         offset="0"
         id="stop162" /></linearGradient><filter
       style="color-interpolation-filters:sRGB"
       inkscape:label="Drop Shadow"
       id="filter158"
       x="-0.029314291"
       y="-0.029314291"
       width="1.0586286"
       height="1.0665026"><feFlood
         result="flood"
         in="SourceGraphic"
         flood-opacity="0.501961"
         flood-color="rgb(0,0,0)"
         id="feFlood157" /><feGaussianBlur
         result="blur"
         in="SourceGraphic"
         stdDeviation="1.000000"
         id="feGaussianBlur157" /><feOffset
         result="offset"
         in="blur"
         dx="0.000000"
         dy="1.000000"
         id="feOffset157" /><feComposite
         result="comp1"
         operator="in"
         in="flood"
         in2="offset"
         id="feComposite157" /><feComposite
         result="comp2"
         operator="over"
         in="SourceGraphic"
         in2="comp1"
         id="feComposite158" /></filter><linearGradient
       inkscape:collect="always"
       xlink:href="#linearGradient1"
       id="linearGradient2"
       x1="49.03196"
       y1="48.959972"
       x2="160.80646"
       y2="161.05774"
       gradientUnits="userSpaceOnUse"
       gradientTransform="matrix(0.96969642,0,0,0.96969642,4.1051269,4.1051269)" /></defs><path
     d="m 60.796789,192.62628 c -10.387797,0 -18.195182,-2.54731 -23.422152,-7.64197 -5.160825,-5.16081 -7.741238,-12.86896 -7.741238,-23.12442 V 61.42248 c 0,-10.255466 2.580413,-17.930526 7.741238,-23.025177 5.22697,-5.160814 13.034355,-7.741223 23.422152,-7.741223 h 99.643441 c 10.32164,0 18.06284,2.580409 23.22365,7.741223 5.22699,5.160818 7.84048,12.835874 7.84048,23.025177 V 84.050671 H 175.52569 V 62.315699 c 0,-5.160816 -1.35638,-9.064511 -4.0691,-11.711082 -2.64658,-2.646572 -6.41795,-3.969859 -11.31411,-3.969859 H 60.995287 c -4.96232,0 -8.766766,1.323299 -11.41334,3.969859 -2.64657,2.646571 -3.969856,6.550266 -3.969856,11.711082 v 98.650971 c 0,5.16082 1.323299,9.06451 3.969856,11.71108 2.646574,2.64657 6.45102,3.96985 11.41334,3.96985 h 24.910856 v 15.97868 z"
     id="text7"
     style="font-size:12px;font-family:'SF Pro';-inkscape-font-specification:'SF Pro';text-align:center;text-anchor:middle;display:inline;fill:url(#linearGradient2);fill-opacity:1;stroke-width:16.9381;stroke-linecap:round;stroke-opacity:0.501437"
     aria-label="􀐅"
     sodipodi:nodetypes="scsscsscsccscsssssssccs" /><path
     d="m 105.93638,240.27725 q -13.917539,0 -20.920635,-6.91444 -6.914439,-6.82579 -6.914439,-20.47743 v -108.3263 q 0,-13.740247 6.914439,-20.566041 7.003096,-6.914449 20.920635,-6.914449 h 107.52848 q 13.91754,0 20.83197,6.914449 7.0031,6.914442 7.0031,20.566041 v 108.3263 q 0,13.65164 -7.0031,20.47743 -6.91443,6.91444 -20.83197,6.91444 z m 24.02327,-44.41203 q 3.19125,0 5.40745,-2.1275 l 24.46651,-24.6438 24.55515,24.64378 q 2.03889,2.12752 5.23014,2.12752 3.10262,0 5.23014,-2.12752 2.12752,-2.21614 2.12752,-5.23014 0,-3.27993 -2.12752,-5.23014 l -24.64377,-24.55518 24.73245,-24.6438 q 2.1275,-2.21614 2.1275,-5.23014 0,-3.01399 -2.1275,-5.14151 -2.12752,-2.12751 -5.14152,-2.12751 -2.92537,0 -5.05288,2.12751 l -24.90972,24.73243 -24.73244,-24.64379 q -2.21615,-2.0389 -5.14151,-2.0389 -3.01399,0 -5.14152,2.12753 -2.12751,2.03888 -2.12751,5.1415 0,2.92536 2.12751,5.14151 l 24.6438,24.55515 -24.6438,24.64379 q -2.12751,2.12752 -2.12751,5.14152 0,3.01399 2.12751,5.23014 2.12752,2.12752 5.14152,2.12755 z"
     id="text2"
     style="font-size:3.175px;font-family:'SF Pro';-inkscape-font-specification:'SF Pro';text-align:center;text-anchor:middle;fill:#057aff;fill-opacity:1;stroke-width:15.129;stroke-linecap:round;stroke-opacity:0.501437"
     aria-label="􀃱" /></svg>
