<?xml version="1.0" encoding="UTF-8" standalone="no"?>
<!-- Created with Inkscape (http://www.inkscape.org/) -->

<svg
   width="48"
   height="48"
   viewBox="0 0 12.7 12.7"
   version="1.1"
   id="svg1"
   xml:space="preserve"
   inkscape:version="1.4.2 (ebf0e940, 2025-05-08)"
   sodipodi:docname="icon.svg"
   inkscape:export-filename="../../../../Icons/v2/resources/icon-48.png"
   inkscape:export-xdpi="9"
   inkscape:export-ydpi="9"
   xmlns:inkscape="http://www.inkscape.org/namespaces/inkscape"
   xmlns:sodipodi="http://sodipodi.sourceforge.net/DTD/sodipodi-0.dtd"
   xmlns="http://www.w3.org/2000/svg"
   xmlns:svg="http://www.w3.org/2000/svg"><sodipodi:namedview
     id="namedview1"
     pagecolor="#ffffff"
     bordercolor="#000000"
     borderopacity="0.25"
     inkscape:showpageshadow="false"
     inkscape:pageopacity="0.0"
     inkscape:pagecheckerboard="0"
     inkscape:deskcolor="#d1d1d1"
     inkscape:document-units="px"
     showborder="true"
     borderlayer="false"
     inkscape:zoom="17.342008"
     inkscape:cx="33.963771"
     inkscape:cy="30.013825"
     inkscape:window-width="3440"
     inkscape:window-height="1384"
     inkscape:window-x="0"
     inkscape:window-y="0"
     inkscape:window-maximized="0"
     inkscape:current-layer="svg1"
     showguides="true" /><defs
     id="defs1"><linearGradient
       id="swatch162"
       inkscape:swatch="solid"><stop
         style="stop-color:#000000;stop-opacity:1;"
         offset="0"
         id="stop162" /></linearGradient><filter
       style="color-interpolation-filters:sRGB"
       inkscape:label="Drop Shadow"
       id="filter158"
       x="-0.029314291"
       y="-0.029314291"
       width="1.0586286"
       height="1.0665026"><feFlood
         result="flood"
         in="SourceGraphic"
         flood-opacity="0.501961"
         flood-color="rgb(0,0,0)"
         id="feFlood157" /><feGaussianBlur
         result="blur"
         in="SourceGraphic"
         stdDeviation="1.000000"
         id="feGaussianBlur157" /><feOffset
         result="offset"
         in="blur"
         dx="0.000000"
         dy="1.000000"
         id="feOffset157" /><feComposite
         result="comp1"
         operator="in"
         in="flood"
         in2="offset"
         id="feComposite157" /><feComposite
         result="comp2"
         operator="over"
         in="SourceGraphic"
         in2="comp1"
         id="feComposite158" /></filter></defs><path
     d="m 2.6165038,9.2079832 c -0.5193902,0 -0.9097597,-0.1273665 -1.1711084,-0.3820994 C 1.187354,8.5678433 1.0583333,8.1824362 1.0583333,7.6696624 V 2.6477885 c 0,-0.5127736 0.1290207,-0.8965269 0.3870621,-1.1512596 C 1.7067441,1.238488 2.0971136,1.1094675 2.6165038,1.1094675 h 4.9821755 c 0.5160819,0 0.903143,0.1290205 1.1611836,0.3870614 C 9.0212122,1.7545699 9.151887,2.138323 9.151887,2.6477885 V 3.7791988 H 8.3529526 V 2.6924495 c 0,-0.258041 -0.067819,-0.4532259 -0.2034554,-0.5855545 C 8.0171683,1.9745663 7.8285998,1.9084019 7.5837919,1.9084019 H 2.6264287 c -0.2481162,0 -0.4383386,0.066165 -0.5706674,0.1984931 C 1.9234327,2.2392236 1.8572684,2.4344085 1.8572684,2.6924495 v 4.932552 c 0,0.2580408 0.066165,0.4532255 0.1984929,0.585554 0.1323288,0.1323284 0.3225512,0.1984927 0.5706674,0.1984927 h 1.2455437 v 0.798935 z"
     id="text7"
     style="font-size:12px;font-family:'SF Pro';-inkscape-font-specification:'SF Pro';text-align:center;text-anchor:middle;display:inline;stroke-width:0.846906;stroke-linecap:round;stroke-opacity:0.501437"
     aria-label="􀐅"
     sodipodi:nodetypes="scsscsscsccscsssssssccs" /><path
     d="m 4.8734849,11.590533 q -0.6958775,0 -1.0460325,-0.345722 -0.3457222,-0.34129 -0.3457222,-1.023872 V 4.8046199 q 0,-0.6870128 0.3457222,-1.0283027 0.350155,-0.3457227 1.0460325,-0.3457227 h 5.3764281 q 0.695877,0 1.041599,0.3457227 0.350155,0.3457223 0.350155,1.0283027 v 5.4163191 q 0,0.682582 -0.350155,1.023872 -0.345722,0.345722 -1.041599,0.345722 z M 6.0746491,9.3699303 q 0.1595627,0 0.2703731,-0.1063759 L 7.5683481,8.0313638 8.7961063,9.2635542 q 0.1019444,0.1063759 0.2615071,0.1063759 0.1551312,0 0.2615072,-0.1063759 0.106376,-0.1108075 0.106376,-0.2615073 0,-0.163997 -0.106376,-0.2615072 L 8.0869315,7.5127796 9.3235543,6.2805892 q 0.1063759,-0.1108074 0.1063759,-0.2615073 0,-0.1506997 -0.1063759,-0.2570757 -0.1063758,-0.1063759 -0.2570757,-0.1063759 -0.1462684,0 -0.2526444,0.1063759 L 7.5683476,6.9986282 6.3317249,5.7664378 Q 6.2209173,5.6644933 6.0746491,5.6644933 q -0.1506996,0 -0.2570757,0.1063759 -0.1063759,0.1019444 -0.1063759,0.2570757 0,0.1462681 0.1063759,0.2570757 L 7.0497638,7.5127787 5.8175734,8.7449695 q -0.1063759,0.1063758 -0.1063759,0.2570756 0,0.1506998 0.1063759,0.2615074 0.1063758,0.1063758 0.2570757,0.1063778 z"
     id="text2"
     style="font-size:3.175px;font-family:'SF Pro';-inkscape-font-specification:'SF Pro';text-align:center;text-anchor:middle;stroke-width:0.756452;stroke-linecap:round;stroke-opacity:0.501437"
     aria-label="􀃱" /></svg>
