<?xml version="1.0" encoding="UTF-8" standalone="no"?>
<svg
   version="1.1"
   viewBox="0 0 15.9375 15.9453"
   id="svg2"
   sodipodi:docname="toolbar-icon.svg"
   inkscape:version="1.4.2 (ebf0e940, 2025-05-08)"
   xmlns:inkscape="http://www.inkscape.org/namespaces/inkscape"
   xmlns:sodipodi="http://sodipodi.sourceforge.net/DTD/sodipodi-0.dtd"
   xmlns="http://www.w3.org/2000/svg"
   xmlns:svg="http://www.w3.org/2000/svg">
  <defs
     id="defs2" />
  <sodipodi:namedview
     id="namedview2"
     pagecolor="#ffffff"
     bordercolor="#000000"
     borderopacity="0.25"
     inkscape:showpageshadow="2"
     inkscape:pageopacity="0.0"
     inkscape:pagecheckerboard="0"
     inkscape:deskcolor="#d1d1d1"
     inkscape:zoom="43.651468"
     inkscape:cx="8.5220501"
     inkscape:cy="8.4647783"
     inkscape:window-width="3440"
     inkscape:window-height="1384"
     inkscape:window-x="0"
     inkscape:window-y="0"
     inkscape:window-maximized="1"
     inkscape:current-layer="svg2" />
  <g
     id="g1"
     transform="matrix(0.37499998,0,0,0.37499998,3.8437499,6.5451234)">
    <path
       d="m -3.1108517,14.608564 c -1.9630496,0 -3.4384619,-0.481386 -4.4262365,-1.444156 C -8.5123628,12.189137 -9.0000001,10.73248 -9.0000001,8.7944377 V -10.185873 c 0,-1.938042 0.4876373,-3.388448 1.4629119,-4.351218 C -6.5493136,-15.512363 -5.0739013,-16 -3.1108517,-16 H 15.719418 c 1.950546,0 3.413454,0.487637 4.388726,1.462909 0.987776,0.975273 1.481666,2.425679 1.481666,4.351218 v 4.2761962 h -3.019595 v -4.1073992 c 0,-0.975273 -0.256324,-1.71298 -0.768965,-2.213119 -0.500141,-0.50014 -1.212841,-0.75021 -2.138099,-0.75021 H -3.0733402 c -0.9377621,0 -1.6567129,0.250072 -2.1568532,0.75021 -0.5001396,0.500139 -0.7502094,1.237846 -0.7502094,2.213119 V 8.6256406 c 0,0.9752723 0.2500724,1.7129784 0.7502094,2.2131174 0.5001403,0.500139 1.2190911,0.750209 2.1568532,0.750209 h 4.7075668 v 3.019597 z"
       id="text7"
       style="font-size:12px;font-family:'SF Pro';-inkscape-font-specification:'SF Pro';text-align:center;text-anchor:middle;display:inline;stroke-width:3.2009;stroke-linecap:round;stroke-opacity:0.501437"
       aria-label="􀐅"
       sodipodi:nodetypes="scsscsscsccscsssssssccs" />
    <path
       d="m 5.4194707,23.613476 q -2.6300882,0 -3.9535087,-1.306665 Q 0.15929539,21.016896 0.15929539,18.437058 V -2.0340695 q 0,-2.5965838 1.30666661,-3.8864984 1.3234205,-1.3066685 3.9535087,-1.3066685 H 25.739829 q 2.630086,0 3.936752,1.3066685 1.323421,1.306667 1.323421,3.8864984 V 18.437058 q 0,2.579838 -1.323421,3.869753 -1.306666,1.306665 -3.936752,1.306665 z m 4.5398332,-8.392829 q 0.6030721,0 1.0218831,-0.40205 l 4.623594,-4.657099 4.640346,4.657098 q 0.385301,0.40205 0.988373,0.40205 0.586322,0 0.988374,-0.40205 0.402051,-0.4188 0.402051,-0.988374 0,-0.619831 -0.402051,-0.988374 l -4.657093,-4.6403531 4.67385,-4.6570977 q 0.40205,-0.4187996 0.40205,-0.988374 0,-0.5695737 -0.40205,-0.9716247 -0.40205,-0.4020507 -0.971625,-0.4020507 -0.552825,0 -0.954876,0.4020507 l -4.707351,4.6738469 -4.67385,-4.6570976 q -0.4188,-0.385302 -0.9716251,-0.385302 -0.5695733,0 -0.9716247,0.4020506 -0.4020506,0.3853017 -0.4020506,0.9716247 0,0.5528243 0.4020506,0.9716247 L 13.644777,8.2014914 8.9876792,12.858591 q -0.4020506,0.40205 -0.4020506,0.971624 0,0.569574 0.4020506,0.988374 0.4020503,0.402051 0.9716247,0.402058 z"
       id="text2"
       style="font-size:3.175px;font-family:'SF Pro';-inkscape-font-specification:'SF Pro';text-align:center;text-anchor:middle;stroke-width:2.85903;stroke-linecap:round;stroke-opacity:0.501437"
       aria-label="􀃱" />
  </g>
</svg>
