<?xml version="1.0" encoding="UTF-8" standalone="no"?>
<!-- Created with Inkscape (http://www.inkscape.org/) -->

<svg
   width="1024"
   height="1024"
   viewBox="0 0 270.93333 270.93333"
   version="1.1"
   id="svg1"
   xml:space="preserve"
   inkscape:version="1.4.2 (ebf0e940, 2025-05-08)"
   sodipodi:docname="icon-button.1.svg"
   inkscape:export-filename="../../../../Icons/v2/resources/icon-48.png"
   inkscape:export-xdpi="9"
   inkscape:export-ydpi="9"
   xmlns:inkscape="http://www.inkscape.org/namespaces/inkscape"
   xmlns:sodipodi="http://sodipodi.sourceforge.net/DTD/sodipodi-0.dtd"
   xmlns="http://www.w3.org/2000/svg"
   xmlns:svg="http://www.w3.org/2000/svg"><sodipodi:namedview
     id="namedview1"
     pagecolor="#ffffff"
     bordercolor="#000000"
     borderopacity="0.25"
     inkscape:showpageshadow="false"
     inkscape:pageopacity="0.0"
     inkscape:pagecheckerboard="0"
     inkscape:deskcolor="#d1d1d1"
     inkscape:document-units="px"
     showborder="true"
     borderlayer="false"
     inkscape:zoom="1.0718172"
     inkscape:cx="293.8934"
     inkscape:cy="666.62487"
     inkscape:window-width="3440"
     inkscape:window-height="1384"
     inkscape:window-x="0"
     inkscape:window-y="0"
     inkscape:window-maximized="0"
     inkscape:current-layer="svg1"
     showguides="true" /><defs
     id="defs1"><linearGradient
       id="swatch162"
       inkscape:swatch="solid"><stop
         style="stop-color:#000000;stop-opacity:1;"
         offset="0"
         id="stop162" /></linearGradient><filter
       style="color-interpolation-filters:sRGB"
       inkscape:label="Drop Shadow"
       id="filter158"
       x="-0.029314291"
       y="-0.029314291"
       width="1.0586286"
       height="1.0665026"><feFlood
         result="flood"
         in="SourceGraphic"
         flood-opacity="0.501961"
         flood-color="rgb(0,0,0)"
         id="feFlood157" /><feGaussianBlur
         result="blur"
         in="SourceGraphic"
         stdDeviation="1.000000"
         id="feGaussianBlur157" /><feOffset
         result="offset"
         in="blur"
         dx="0.000000"
         dy="1.000000"
         id="feOffset157" /><feComposite
         result="comp1"
         operator="in"
         in="flood"
         in2="offset"
         id="feComposite157" /><feComposite
         result="comp2"
         operator="over"
         in="SourceGraphic"
         in2="comp1"
         id="feComposite158" /></filter></defs><path
     d="m 105.93638,240.27725 q -13.917541,0 -20.920637,-6.91444 -6.914439,-6.82579 -6.914439,-20.47743 v -108.3263 q 0,-13.740248 6.914439,-20.566042 7.003096,-6.91445 20.920637,-6.91445 h 107.52848 q 13.91754,0 20.83197,6.91445 7.0031,6.914441 7.0031,20.566042 v 108.3263 q 0,13.65164 -7.0031,20.47743 -6.91443,6.91444 -20.83197,6.91444 z m 24.02327,-44.41203 q 3.19125,0 5.40745,-2.12751 l 24.46651,-24.64379 24.55514,24.64378 q 2.0389,2.12752 5.23015,2.12752 3.10262,0 5.23013,-2.12752 2.12753,-2.21614 2.12753,-5.23014 0,-3.27993 -2.12753,-5.23014 l -24.64376,-24.55518 24.73244,-24.6438 q 2.12751,-2.21614 2.12751,-5.23014 0,-3.01399 -2.12751,-5.14151 -2.12751,-2.12751 -5.14151,-2.12751 -2.92537,0 -5.05289,2.12751 l -24.90971,24.73243 -24.73244,-24.6438 q -2.21615,-2.03889 -5.14151,-2.03889 -3.01399,0 -5.14152,2.12752 -2.12751,2.03889 -2.12751,5.14151 0,2.92536 2.12751,5.14151 l 24.6438,24.55515 -24.6438,24.64379 q -2.12751,2.12752 -2.12751,5.14152 0,3.01399 2.12751,5.23014 2.12752,2.12752 5.14152,2.12755 z"
     id="text2"
     style="font-size:3.175px;font-family:'SF Pro';-inkscape-font-specification:'SF Pro';text-align:center;text-anchor:middle;stroke-width:15.129;stroke-linecap:round;stroke-opacity:0.501437;fill:#057aff;fill-opacity:1"
     aria-label="􀃱" /></svg>
